# xmcd
#
# Track frame offsets: 
#        182
#        11877
#        45450
#        69992
#        90632
#        110957
#        146200
#        164107
#        179965
#        204360
#        225397
#        243907
#        292952
#
# Disc length: 4390 seconds
#
# Revision: 4
# Processed by: cddbd v1.5.2PL0 Copyright (c) Steve Scherf et al.
# Submitted via: ExactAudioCopy v0.99pb5
#
DISCID=c111240d
DTITLE=Alvin Lee and Ten Years After - Pure Blues
DYEAR=1995
DGENRE=Blues
TTITLE0=Don't Want You Woman
TTITLE1=The Bluest Blues
TTITLE2=I Woke Up This Morning
TTITLE3=Real Life Blues
TTITLE4=The Stomp
TTITLE5=Slow Blues In 'C'
TTITLE6=Wake Up Moma
TTITLE7=Talk Don't Bother Me
TTITLE8=Every Blues You've Ever Heard
TTITLE9=I Get All Shook Up
TTITLE10=Lost In Love
TTITLE11=Help Me
TTITLE12=Outside My Window
EXTD=YEAR: 1995 ID3G: 0
EXTT0=
EXTT1=
EXTT2=
EXTT3=
EXTT4=
EXTT5=
EXTT6=
EXTT7=
EXTT8=
EXTT9=
EXTT10=
EXTT11=
EXTT12=
PLAYORDER=
